<?xml version="1.0" encoding="UTF-8" standalone="no"?>
<!-- Created with Inkscape (http://www.inkscape.org/) -->

<svg
   xmlns:dc="http://purl.org/dc/elements/1.1/"
   xmlns:cc="http://creativecommons.org/ns#"
   xmlns:rdf="http://www.w3.org/1999/02/22-rdf-syntax-ns#"
   xmlns:svg="http://www.w3.org/2000/svg"
   xmlns="http://www.w3.org/2000/svg"
   xmlns:sodipodi="http://sodipodi.sourceforge.net/DTD/sodipodi-0.dtd"
   xmlns:inkscape="http://www.inkscape.org/namespaces/inkscape"
   id="svg2"
   version="1.1"
   inkscape:version="0.91 r13725"
   xml:space="preserve"
   width="1188.0081"
   height="1389.4406"
   viewBox="0 0 1188.0081 1389.4406"
   sodipodi:docname="PhotoBox_1.0.svg"><metadata
     id="metadata8"><rdf:RDF><cc:Work
         rdf:about=""><dc:format>image/svg+xml</dc:format><dc:type
           rdf:resource="http://purl.org/dc/dcmitype/StillImage" /><dc:title /></cc:Work></rdf:RDF></metadata><defs
     id="defs6" /><sodipodi:namedview
     pagecolor="#ffffff"
     bordercolor="#666666"
     borderopacity="1"
     objecttolerance="10"
     gridtolerance="10"
     guidetolerance="10"
     inkscape:pageopacity="0"
     inkscape:pageshadow="2"
     inkscape:window-width="1920"
     inkscape:window-height="1017"
     id="namedview4"
     showgrid="false"
     inkscape:zoom="0.70710678"
     inkscape:cx="896.59198"
     inkscape:cy="525.97382"
     inkscape:window-x="-8"
     inkscape:window-y="-8"
     inkscape:window-maximized="1"
     inkscape:current-layer="layer2"
     inkscape:document-units="mm"
     units="mm"
     showguides="false"
     inkscape:guide-bbox="true"><sodipodi:guide
       position="227.00001,507.00002"
       orientation="1,0"
       id="guide5277" /><sodipodi:guide
       position="350.00001,510.00002"
       orientation="0,1"
       id="guide5279" /></sodipodi:namedview><g
     inkscape:groupmode="layer"
     id="layer4"
     inkscape:label="Interior Cut"
     style="display:inline"><g
       transform="matrix(2.4738098,0,0,2.5324358,-210.00575,-316.74392)"
       id="g18"
       style="display:inline;fill:none;stroke:#ff0000;stroke-width:1.41732287;stroke-miterlimit:4;stroke-dasharray:none;stroke-opacity:1"><path
         inkscape:connector-curvature="0"
         id="path20"
         style="fill:none;stroke:#ff0000;stroke-width:1.41732287;stroke-linecap:butt;stroke-linejoin:miter;stroke-miterlimit:4;stroke-dasharray:none;stroke-opacity:1"
         d="m 188.301,238.508 c 0,4.367 -3.535,7.902 -7.903,7.902 -4.363,0 -7.898,-3.535 -7.898,-7.902 0,-4.363 3.535,-7.899 7.898,-7.899 4.368,0 7.903,3.536 7.903,7.899 z" /></g><g
       transform="matrix(1.25,0,0,1.25,0,-2.5e-5)"
       id="g22"
       style="display:inline;stroke:#ff0000;stroke-opacity:1;fill:none;stroke-width:1.41732283;stroke-miterlimit:4;stroke-dasharray:none"><path
         inkscape:connector-curvature="0"
         id="path24"
         style="fill:none;stroke:#ff0000;stroke-width:1.41732283;stroke-linecap:butt;stroke-linejoin:miter;stroke-miterlimit:4;stroke-dasharray:none;stroke-opacity:1"
         d="m 33.992,25.484 292.816,0 0,162.43 -292.816,0 0,-162.43 z" /></g><g
       transform="matrix(1.25,0,0,1.25,0,-2.5e-5)"
       id="g46"
       style="display:inline;stroke:#ff0000;stroke-opacity:1;fill:none;stroke-width:1.41732283;stroke-miterlimit:4;stroke-dasharray:none"><path
         inkscape:connector-curvature="0"
         id="path48"
         style="fill:none;stroke:#ff0000;stroke-width:1.41732283;stroke-linecap:butt;stroke-linejoin:miter;stroke-miterlimit:4;stroke-dasharray:none;stroke-opacity:1"
         d="m 297.328,476.621 17.008,0 0,8.504 -17.008,0 0,-8.504 z" /></g><g
       transform="matrix(1.25,0,0,1.25,0,-2.5e-5)"
       id="g50"
       style="display:inline;stroke:#ff0000;stroke-opacity:1;fill:none;stroke-width:1.41732283;stroke-miterlimit:4;stroke-dasharray:none"><path
         inkscape:connector-curvature="0"
         id="path52"
         style="fill:none;stroke:#ff0000;stroke-width:1.41732283;stroke-linecap:butt;stroke-linejoin:miter;stroke-miterlimit:4;stroke-dasharray:none;stroke-opacity:1"
         d="m 46.461,476.621 17.008,0 0,8.504 -17.008,0 0,-8.504 z" /></g><g
       transform="matrix(1.25,0,0,1.25,0,-2.5e-5)"
       id="g58"
       style="display:inline;stroke:#ff0000;stroke-opacity:1;fill:none;stroke-width:1.41732283;stroke-miterlimit:4;stroke-dasharray:none"><path
         inkscape:connector-curvature="0"
         id="path60"
         style="fill:none;stroke:#ff0000;stroke-width:1.41732283;stroke-linecap:butt;stroke-linejoin:miter;stroke-miterlimit:4;stroke-dasharray:none;stroke-opacity:1"
         d="m 394.418,264.023 34.012,0 0,8.504 -34.012,0 0,-8.504 z" /></g><g
       transform="matrix(1.25,0,0,1.25,0,-2.5e-5)"
       id="g62"
       style="display:inline;stroke:#ff0000;stroke-opacity:1;fill:none;stroke-width:1.41732283;stroke-miterlimit:4;stroke-dasharray:none"><path
         inkscape:connector-curvature="0"
         id="path64"
         style="fill:none;stroke:#ff0000;stroke-width:1.41732283;stroke-linecap:butt;stroke-linejoin:miter;stroke-miterlimit:4;stroke-dasharray:none;stroke-opacity:1"
         d="m 581.504,264.023 34.016,0 0,8.504 -34.016,0 0,-8.504 z" /></g><g
       transform="matrix(1.25,0,0,1.25,0,-2.5e-5)"
       id="g66"
       style="display:inline;stroke:#ff0000;stroke-opacity:1;fill:none;stroke-width:1.41732283;stroke-miterlimit:4;stroke-dasharray:none"><path
         inkscape:connector-curvature="0"
         id="path68"
         style="fill:none;stroke:#ff0000;stroke-width:1.41732283;stroke-linecap:butt;stroke-linejoin:miter;stroke-miterlimit:4;stroke-dasharray:none;stroke-opacity:1"
         d="m 394.418,14.574 34.012,0 0,8.504 -34.012,0 0,-8.504 z" /></g><g
       transform="matrix(1.25,0,0,1.25,0,-2.5e-5)"
       id="g70"
       style="display:inline;stroke:#ff0000;stroke-opacity:1;fill:none;stroke-width:1.41732283;stroke-miterlimit:4;stroke-dasharray:none"><path
         inkscape:connector-curvature="0"
         id="path72"
         style="fill:none;stroke:#ff0000;stroke-width:1.41732283;stroke-linecap:butt;stroke-linejoin:miter;stroke-miterlimit:4;stroke-dasharray:none;stroke-opacity:1"
         d="m 581.504,14.574 34.016,0 0,8.504 -34.016,0 0,-8.504 z" /></g><g
       transform="matrix(1.25,0,0,1.25,0,-2.5e-5)"
       id="g74"
       style="display:inline;stroke:#ff0000;stroke-opacity:1;fill:none;stroke-width:1.41732283;stroke-miterlimit:4;stroke-dasharray:none"><path
         inkscape:connector-curvature="0"
         id="path76"
         style="fill:none;stroke:#ff0000;stroke-width:1.41732283;stroke-linecap:butt;stroke-linejoin:miter;stroke-miterlimit:4;stroke-dasharray:none;stroke-opacity:1"
         d="m 439.77,122.289 8.504,0 0,34.016 -8.504,0 0,-34.016 z" /></g><g
       transform="matrix(1.25,0,0,1.25,0,-2.5e-5)"
       id="g78"
       style="display:inline;stroke:#ff0000;stroke-opacity:1;fill:none;stroke-width:1.41732283;stroke-miterlimit:4;stroke-dasharray:none"><path
         inkscape:connector-curvature="0"
         id="path80"
         style="fill:none;stroke:#ff0000;stroke-width:1.41732283;stroke-linecap:butt;stroke-linejoin:miter;stroke-miterlimit:4;stroke-dasharray:none;stroke-opacity:1"
         d="m 632.527,122.289 8.504,0 0,34.016 -8.504,0 0,-34.016 z" /></g><g
       transform="matrix(1.25,0,0,1.25,0,-2.5e-5)"
       id="g82"
       style="display:inline;stroke:#ff0000;stroke-opacity:1;fill:none;stroke-width:1.41732283;stroke-miterlimit:4;stroke-dasharray:none"><path
         inkscape:connector-curvature="0"
         id="path84"
         style="fill:none;stroke:#ff0000;stroke-width:1.41732283;stroke-linecap:butt;stroke-linejoin:miter;stroke-miterlimit:4;stroke-dasharray:none;stroke-opacity:1"
         d="m 448.273,57.801 c 0,2.347 -1.902,4.254 -4.25,4.254 -2.347,0 -4.253,-1.907 -4.253,-4.254 0,-2.348 1.906,-4.25 4.253,-4.25 2.348,0 4.25,1.902 4.25,4.25 z" /></g><g
       transform="matrix(1.25,0,0,1.25,0,-2.5e-5)"
       id="g86"
       style="display:inline;stroke:#ff0000;stroke-opacity:1;fill:none;stroke-width:1.41732283;stroke-miterlimit:4;stroke-dasharray:none"><path
         inkscape:connector-curvature="0"
         id="path88"
         style="fill:none;stroke:#ff0000;stroke-width:1.41732283;stroke-linecap:butt;stroke-linejoin:miter;stroke-miterlimit:4;stroke-dasharray:none;stroke-opacity:1"
         d="m 641.031,57.801 c 0,2.347 -1.902,4.254 -4.254,4.254 -2.347,0 -4.25,-1.907 -4.25,-4.254 0,-2.348 1.903,-4.25 4.25,-4.25 2.352,0 4.254,1.902 4.254,4.25 z" /></g><g
       transform="matrix(1.25,0,0,1.25,0,-2.5e-5)"
       id="g90"
       style="display:inline;stroke:#ff0000;stroke-opacity:1;fill:none;stroke-width:1.41732283;stroke-miterlimit:4;stroke-dasharray:none"><path
         inkscape:connector-curvature="0"
         id="path92"
         style="fill:none;stroke:#ff0000;stroke-width:1.41732283;stroke-linecap:butt;stroke-linejoin:miter;stroke-miterlimit:4;stroke-dasharray:none;stroke-opacity:1"
         d="m 448.273,220.793 c 0,2.348 -1.902,4.254 -4.25,4.254 -2.347,0 -4.253,-1.906 -4.253,-4.254 0,-2.348 1.906,-4.25 4.253,-4.25 2.348,0 4.25,1.902 4.25,4.25 z" /></g><g
       transform="matrix(1.25,0,0,1.25,0,-2.5e-5)"
       id="g94"
       style="display:inline;stroke:#ff0000;stroke-opacity:1;fill:none;stroke-width:1.41732283;stroke-miterlimit:4;stroke-dasharray:none"><path
         inkscape:connector-curvature="0"
         id="path96"
         style="fill:none;stroke:#ff0000;stroke-width:1.41732283;stroke-linecap:butt;stroke-linejoin:miter;stroke-miterlimit:4;stroke-dasharray:none;stroke-opacity:1"
         d="m 641.031,220.793 c 0,2.348 -1.902,4.254 -4.254,4.254 -2.347,0 -4.25,-1.906 -4.25,-4.254 0,-2.348 1.903,-4.25 4.25,-4.25 2.352,0 4.254,1.902 4.254,4.25 z" /></g><g
       transform="matrix(1.25,0,0,1.25,0,-2.5e-5)"
       id="g98"
       style="display:inline;stroke:#ff0000;stroke-opacity:1;fill:none;stroke-width:1.41732283;stroke-miterlimit:4;stroke-dasharray:none"><path
         inkscape:connector-curvature="0"
         id="path100"
         style="fill:none;stroke:#ff0000;stroke-width:1.41732283;stroke-linecap:butt;stroke-linejoin:miter;stroke-miterlimit:4;stroke-dasharray:none;stroke-opacity:1"
         d="m 380.242,35.832 c 0,3.914 -3.172,7.09 -7.086,7.09 -3.914,0 -7.086,-3.176 -7.086,-7.09 0,-3.914 3.172,-7.086 7.086,-7.086 3.914,0 7.086,3.172 7.086,7.086 z" /></g><g
       transform="matrix(1.25,0,0,1.25,0,-2.5e-5)"
       id="g106"
       style="display:inline;stroke:#ff0000;stroke-opacity:1;fill:none;stroke-width:1.41732283;stroke-miterlimit:4;stroke-dasharray:none"><path
         inkscape:connector-curvature="0"
         id="path108"
         style="fill:none;stroke:#ff0000;stroke-width:1.41732283;stroke-linecap:butt;stroke-linejoin:miter;stroke-miterlimit:4;stroke-dasharray:none;stroke-opacity:1"
         d="m 876.305,264.023 34.016,0 0,8.504 -34.016,0 0,-8.504 z" /></g><g
       transform="matrix(1.25,0,0,1.25,0,-2.5e-5)"
       id="g110"
       style="display:inline;stroke:#ff0000;stroke-opacity:1;fill:none;stroke-width:1.41732283;stroke-miterlimit:4;stroke-dasharray:none"><path
         inkscape:connector-curvature="0"
         id="path112"
         style="fill:none;stroke:#ff0000;stroke-width:1.41732283;stroke-linecap:butt;stroke-linejoin:miter;stroke-miterlimit:4;stroke-dasharray:none;stroke-opacity:1"
         d="m 689.219,264.023 34.016,0 0,8.504 -34.016,0 0,-8.504 z" /></g><g
       transform="matrix(1.25,0,0,1.25,0,-2.5e-5)"
       id="g114"
       style="display:inline;stroke:#ff0000;stroke-opacity:1;fill:none;stroke-width:1.41732283;stroke-miterlimit:4;stroke-dasharray:none"><path
         inkscape:connector-curvature="0"
         id="path116"
         style="fill:none;stroke:#ff0000;stroke-width:1.41732283;stroke-linecap:butt;stroke-linejoin:miter;stroke-miterlimit:4;stroke-dasharray:none;stroke-opacity:1"
         d="m 876.305,14.574 34.016,0 0,8.504 -34.016,0 0,-8.504 z" /></g><g
       transform="matrix(1.25,0,0,1.25,0,-2.5e-5)"
       id="g118"
       style="display:inline;stroke:#ff0000;stroke-opacity:1;fill:none;stroke-width:1.41732283;stroke-miterlimit:4;stroke-dasharray:none"><path
         inkscape:connector-curvature="0"
         id="path120"
         style="fill:none;stroke:#ff0000;stroke-width:1.41732283;stroke-linecap:butt;stroke-linejoin:miter;stroke-miterlimit:4;stroke-dasharray:none;stroke-opacity:1"
         d="m 689.219,14.574 34.016,0 0,8.504 -34.016,0 0,-8.504 z" /></g><g
       transform="matrix(1.25,0,0,1.25,0,-2.5e-5)"
       id="g122"
       style="display:inline;stroke:#ff0000;stroke-opacity:1;fill:none;stroke-width:1.41732283;stroke-miterlimit:4;stroke-dasharray:none"><path
         inkscape:connector-curvature="0"
         id="path124"
         style="fill:none;stroke:#ff0000;stroke-width:1.41732283;stroke-linecap:butt;stroke-linejoin:miter;stroke-miterlimit:4;stroke-dasharray:none;stroke-opacity:1"
         d="m 856.465,122.289 8.504,0 0,34.016 -8.504,0 0,-34.016 z" /></g><g
       transform="matrix(1.25,0,0,1.25,0,-2.5e-5)"
       id="g126"
       style="display:inline;stroke:#ff0000;stroke-opacity:1;fill:none;stroke-width:1.41732283;stroke-miterlimit:4;stroke-dasharray:none"><path
         inkscape:connector-curvature="0"
         id="path128"
         style="fill:none;stroke:#ff0000;stroke-width:1.41732283;stroke-linecap:butt;stroke-linejoin:miter;stroke-miterlimit:4;stroke-dasharray:none;stroke-opacity:1"
         d="m 663.707,122.289 8.504,0 0,34.016 -8.504,0 0,-34.016 z" /></g><g
       transform="matrix(1.25,0,0,1.25,0,-2.5e-5)"
       id="g130"
       style="display:inline;stroke:#ff0000;stroke-opacity:1;fill:none;stroke-width:1.41732283;stroke-miterlimit:4;stroke-dasharray:none"><path
         inkscape:connector-curvature="0"
         id="path132"
         style="fill:none;stroke:#ff0000;stroke-width:1.41732283;stroke-linecap:butt;stroke-linejoin:miter;stroke-miterlimit:4;stroke-dasharray:none;stroke-opacity:1"
         d="m 856.465,57.801 c 0,2.347 1.902,4.254 4.25,4.254 2.347,0 4.254,-1.907 4.254,-4.254 0,-2.348 -1.907,-4.25 -4.254,-4.25 -2.348,0 -4.25,1.902 -4.25,4.25 z" /></g><g
       transform="matrix(1.25,0,0,1.25,0,-2.5e-5)"
       id="g134"
       style="display:inline;stroke:#ff0000;stroke-opacity:1;fill:none;stroke-width:1.41732283;stroke-miterlimit:4;stroke-dasharray:none"><path
         inkscape:connector-curvature="0"
         id="path136"
         style="fill:none;stroke:#ff0000;stroke-width:1.41732283;stroke-linecap:butt;stroke-linejoin:miter;stroke-miterlimit:4;stroke-dasharray:none;stroke-opacity:1"
         d="m 663.707,57.801 c 0,2.347 1.902,4.254 4.254,4.254 2.348,0 4.25,-1.907 4.25,-4.254 0,-2.348 -1.902,-4.25 -4.25,-4.25 -2.352,0 -4.254,1.902 -4.254,4.25 z" /></g><g
       transform="matrix(1.25,0,0,1.25,0,-2.5e-5)"
       id="g138"
       style="display:inline;stroke:#ff0000;stroke-opacity:1;fill:none;stroke-width:1.41732283;stroke-miterlimit:4;stroke-dasharray:none"><path
         inkscape:connector-curvature="0"
         id="path140"
         style="fill:none;stroke:#ff0000;stroke-width:1.41732283;stroke-linecap:butt;stroke-linejoin:miter;stroke-miterlimit:4;stroke-dasharray:none;stroke-opacity:1"
         d="m 856.465,220.793 c 0,2.348 1.902,4.254 4.25,4.254 2.347,0 4.254,-1.906 4.254,-4.254 0,-2.348 -1.907,-4.25 -4.254,-4.25 -2.348,0 -4.25,1.902 -4.25,4.25 z" /></g><g
       transform="matrix(1.25,0,0,1.25,0,-2.5e-5)"
       id="g142"
       style="display:inline;stroke:#ff0000;stroke-opacity:1;fill:none;stroke-width:1.41732283;stroke-miterlimit:4;stroke-dasharray:none"><path
         inkscape:connector-curvature="0"
         id="path144"
         style="fill:none;stroke:#ff0000;stroke-width:1.41732283;stroke-linecap:butt;stroke-linejoin:miter;stroke-miterlimit:4;stroke-dasharray:none;stroke-opacity:1"
         d="m 663.707,220.793 c 0,2.348 1.902,4.254 4.254,4.254 2.348,0 4.25,-1.906 4.25,-4.254 0,-2.348 -1.902,-4.25 -4.25,-4.25 -2.352,0 -4.254,1.902 -4.254,4.25 z" /></g><g
       transform="matrix(1.25,0,0,1.25,0,-2.5e-5)"
       id="g146"
       style="display:inline;stroke:#ff0000;stroke-opacity:1;fill:none;stroke-width:1.41732283;stroke-miterlimit:4;stroke-dasharray:none"><path
         inkscape:connector-curvature="0"
         id="path148"
         style="fill:none;stroke:#ff0000;stroke-width:1.41732283;stroke-linecap:butt;stroke-linejoin:miter;stroke-miterlimit:4;stroke-dasharray:none;stroke-opacity:1"
         d="m 924.496,35.832 c 0,3.914 3.172,7.09 7.086,7.09 3.914,0 7.086,-3.176 7.086,-7.09 0,-3.914 -3.172,-7.086 -7.086,-7.086 -3.914,0 -7.086,3.172 -7.086,7.086 z" /></g><g
       transform="matrix(1.25,0,0,1.25,0,-2.5e-5)"
       id="g158"
       style="display:inline;stroke:#ff0000;stroke-opacity:1;fill:none;stroke-width:1.41732283;stroke-miterlimit:4;stroke-dasharray:none"><path
         inkscape:connector-curvature="0"
         id="path160"
         style="fill:none;stroke:#ff0000;stroke-width:1.41732283;stroke-linecap:butt;stroke-linejoin:miter;stroke-miterlimit:4;stroke-dasharray:none;stroke-opacity:1"
         d="m 441.441,810.766 34.016,0 0,8.504 -34.016,0 0,-8.504 z" /></g><g
       style="display:inline;fill:none;stroke-width:1.41732283;stroke-miterlimit:4;stroke-dasharray:none"
       transform="matrix(1.25,0,0,1.25,0,-2.5e-5)"
       id="g162"><path
         inkscape:connector-curvature="0"
         id="path164"
         style="fill:none;stroke:#ff0000;stroke-width:1.41732283;stroke-linecap:butt;stroke-linejoin:miter;stroke-miterlimit:4;stroke-dasharray:none;stroke-opacity:1"
         d="m 608.684,810.766 34.016,0 0,8.504 -34.016,0 0,-8.504 z" /></g><circle
       style="display:inline;fill:none;fill-opacity:1;stroke:#ff0000;stroke-width:1.41732283;stroke-linejoin:miter;stroke-miterlimit:4;stroke-dasharray:none;stroke-opacity:1"
       id="path4726-9"
       cx="-774.37811"
       cy="-260.7247"
       r="4.5235033"
       transform="matrix(0,1.25,-1.25,0,0,1389.4406)" /><circle
       style="display:inline;fill:none;fill-opacity:1;stroke:#ff0000;stroke-width:1.41732283;stroke-linejoin:miter;stroke-miterlimit:4;stroke-dasharray:none;stroke-opacity:1"
       id="path4726-9-8"
       cx="-626.974"
       cy="-215.65099"
       r="4.5235033"
       transform="matrix(0,1.25,-1.25,0,0,1389.4406)" /><circle
       style="display:inline;fill:none;fill-opacity:1;stroke:#ff0000;stroke-width:1.41732283;stroke-linejoin:miter;stroke-miterlimit:4;stroke-dasharray:none;stroke-opacity:1"
       id="path4726-9-6"
       cx="-626.94135"
       cy="-134.85863"
       r="4.5235033"
       transform="matrix(0,1.25,-1.25,0,0,1389.4406)" /><circle
       style="display:inline;fill:none;fill-opacity:1;stroke:#ff0000;stroke-width:1.41732283;stroke-linejoin:miter;stroke-miterlimit:4;stroke-dasharray:none;stroke-opacity:1"
       id="path4726-9-86"
       cx="-778.54126"
       cy="-120.60863"
       r="4.5235033"
       transform="matrix(0,1.25,-1.25,0,0,1389.4406)" /><rect
       style="display:inline;fill:none;fill-opacity:1;stroke:#ff0000;stroke-width:1.41732283;stroke-linejoin:miter;stroke-miterlimit:4;stroke-dasharray:none;stroke-opacity:1"
       id="rect5017-1"
       width="28.346457"
       height="28.346457"
       x="569.46887"
       y="-335.42432"
       transform="matrix(1.25,0,0,1.25,0,1389.4406)" /><rect
       style="display:inline;fill:none;fill-opacity:1;stroke:#ff0000;stroke-width:1.41732283;stroke-linejoin:miter;stroke-miterlimit:4;stroke-dasharray:none;stroke-opacity:1"
       id="rect5017-3-2"
       width="31.181103"
       height="31.181103"
       x="477.00964"
       y="-338.26392"
       transform="matrix(1.25,0,0,1.25,0,1389.4406)" /></g><g
     inkscape:groupmode="layer"
     id="layer3"
     inkscape:label="Exterior Cut"
     style="display:inline"><g
       transform="matrix(1.25,0,0,1.25,0,-2.5e-5)"
       id="g14"
       style="stroke:#00ff00;stroke-opacity:1;fill:none;stroke-width:1.41732283;stroke-miterlimit:4;stroke-dasharray:none"><path
         inkscape:connector-curvature="0"
         id="path16"
         style="fill:none;stroke:#00ff00;stroke-width:1.41732283;stroke-linecap:butt;stroke-linejoin:miter;stroke-miterlimit:4;stroke-dasharray:none;stroke-opacity:1"
         d="m 692.055,400.086 0,-60.52 -14.172,0 0,5.243 -8.504,0 0,-5.243 -7.086,0 0,-7.937 7.086,0 0,-5.246 8.504,0 0,5.246 14.172,0 0,-27.922 c 0,-1.566 -1.27,-2.836 -2.836,-2.836 l -131.938,0 c -1.465,0 -2.687,1.121 -2.82,2.582 -1.309,14.445 -13.711,25.766 -28.234,25.766 -14.52,0 -26.922,-11.321 -28.227,-25.766 -0.137,-1.461 -1.359,-2.582 -2.824,-2.582 l -131.942,0 c -1.562,0 -2.832,1.27 -2.832,2.836 l 0,27.922 14.168,0 0,-5.246 8.508,0 0,5.246 7.086,0 0,7.937 -7.086,0 0,5.243 -8.508,0 0,-5.243 -14.168,0 0,60.52 -8.504,0 0,34.016 8.504,0 0,60.519 14.168,0 0,-5.246 8.508,0 0,5.246 7.086,0 0,7.938 -7.086,0 0,5.242 -8.508,0 0,-5.242 -14.168,0 0,36.421 c 0,1.567 1.27,2.836 2.832,2.836 l 29.055,0 c 0,4.7 3.809,8.504 8.504,8.504 4.699,0 8.504,-3.804 8.504,-8.504 l 29.055,0 c 1.566,0 2.836,-1.269 2.836,-2.836 l 0,-102.042 c 0,-4.692 3.816,-8.504 8.503,-8.504 l 153.071,0 c 4.691,0 8.504,3.812 8.504,8.504 l 0,102.042 c 0,1.567 1.269,2.836 2.836,2.836 l 29.054,0 c 0,4.7 3.809,8.504 8.504,8.504 4.695,0 8.504,-3.804 8.504,-8.504 l 29.055,0 c 1.566,0 2.836,-1.269 2.836,-2.836 l 0,-36.421 -14.172,0 0,5.242 -8.504,0 0,-5.242 -7.086,0 0,-7.938 7.086,0 0,-5.246 8.504,0 0,5.246 14.172,0 0,-60.519 8.504,0 0,-34.016 -8.504,0 z" /></g><g
       transform="matrix(1.25,0,0,1.25,0,-2.5e-5)"
       id="g26"
       style="stroke:#00ff00;stroke-opacity:1;fill:none;stroke-width:1.41732283;stroke-miterlimit:4;stroke-dasharray:none"><path
         inkscape:connector-curvature="0"
         id="path28"
         style="fill:none;stroke:#00ff00;stroke-width:1.41732283;stroke-linecap:butt;stroke-linejoin:miter;stroke-miterlimit:4;stroke-dasharray:none;stroke-opacity:1"
         d="m 354.73,65.598 0,-34.016 -8.503,0 0,-22.68 c 0,-1.562 -1.27,-2.832 -2.836,-2.832 l -145.981,0 0,8.504 -34.019,0 0,-8.504 -145.981,0 c -1.566,0 -2.836,1.27 -2.836,2.832 l 0,22.68 -8.504,0 0,34.016 8.504,0 0,153.07 -8.504,0 0,34.016 8.504,0 0,22.675 c 0,1.567 1.27,2.836 2.836,2.836 l 325.981,0 c 1.566,0 2.836,-1.269 2.836,-2.836 l 0,-22.675 8.503,0 0,-34.016 -8.503,0 0,-153.07 8.503,0 z" /></g><g
       transform="matrix(1.25,0,0,1.25,0,-2.5e-5)"
       id="g54"
       style="stroke:#00ff00;stroke-opacity:1;fill:none;stroke-width:1.41732283;stroke-miterlimit:4;stroke-dasharray:none"><path
         inkscape:connector-curvature="0"
         id="path56"
         style="fill:none;stroke:#00ff00;stroke-width:1.41732283;stroke-linecap:butt;stroke-linejoin:miter;stroke-miterlimit:4;stroke-dasharray:none;stroke-opacity:1"
         d="m 354.73,343.391 0,-34.016 -8.503,0 0,-14.172 c 0,-1.566 -1.27,-2.836 -2.836,-2.836 l -62.364,0 0,-8.504 -34.015,0 0,8.504 -133.227,0 0,-8.504 -34.015,0 0,8.504 -62.364,0 c -1.562,0 -2.832,1.27 -2.832,2.836 l 0,14.172 -8.504,0 0,34.016 8.504,0 0,153.074 -8.504,0 0,34.015 8.504,0 0,14.172 c 0,1.567 1.27,2.832 2.832,2.832 l 75.121,0 c 1.563,0 2.832,-1.265 2.832,-2.832 l 0,-12.754 c 0,-15.632 12.719,-28.347 28.348,-28.347 l 113.387,0 c 15.629,0 28.344,12.715 28.344,28.347 l 0,12.754 c 0,1.567 1.269,2.832 2.835,2.832 l 75.118,0 c 1.566,0 2.836,-1.265 2.836,-2.832 l 0,-14.172 8.503,0 0,-34.015 -8.503,0 0,-153.074 8.503,0 z" /></g><g
       transform="matrix(1.25,0,0,1.25,0,-2.5e-5)"
       id="g102"
       style="stroke:#00ff00;stroke-opacity:1;fill:none;stroke-width:1.41732283;stroke-miterlimit:4;stroke-dasharray:none"><path
         inkscape:connector-curvature="0"
         id="path104"
         style="fill:none;stroke:#00ff00;stroke-width:1.41732283;stroke-linecap:butt;stroke-linejoin:miter;stroke-miterlimit:4;stroke-dasharray:none;stroke-opacity:1"
         d="m 360.402,286.699 c 0,4.696 3.805,8.504 8.5,8.504 l 85.039,0 c 4.7,0 8.504,-3.808 8.504,-8.504 l 0,-4.25 c 0,-2.347 1.91,-4.254 4.254,-4.254 l 76.535,0 c 2.348,0 4.254,1.907 4.254,4.254 l 0,4.25 c 0,4.696 3.809,8.504 8.504,8.504 l 85.039,0 c 4.696,0 8.504,-3.808 8.504,-8.504 l 0,-272.125 c 0,-4.695 -3.808,-8.504 -8.504,-8.504 l -272.129,0 c -4.695,0 -8.5,3.809 -8.5,8.504 l 0,272.125 z" /></g><g
       transform="matrix(1.25,0,0,1.25,0,-2.5e-5)"
       id="g150"
       style="stroke:#00ff00;stroke-opacity:1;fill:none;stroke-width:1.41732283;stroke-miterlimit:4;stroke-dasharray:none"><path
         inkscape:connector-curvature="0"
         id="path152"
         style="fill:none;stroke:#00ff00;stroke-width:1.41732283;stroke-linecap:butt;stroke-linejoin:miter;stroke-miterlimit:4;stroke-dasharray:none;stroke-opacity:1"
         d="m 944.336,286.699 c 0,4.696 -3.809,8.504 -8.504,8.504 l -85.039,0 c -4.695,0 -8.504,-3.808 -8.504,-8.504 l 0,-4.25 c 0,-2.347 -1.906,-4.254 -4.25,-4.254 l -76.535,0 c -2.348,0 -4.254,1.907 -4.254,4.254 l 0,4.25 c 0,4.696 -3.809,8.504 -8.504,8.504 l -85.039,0 c -4.695,0 -8.504,-3.808 -8.504,-8.504 l 0,-272.125 c 0,-4.695 3.809,-8.504 8.504,-8.504 l 272.125,0 c 4.695,0 8.504,3.809 8.504,8.504 l 0,272.125 z" /></g><path
       transform="matrix(1.25,0,0,1.25,0,-2.5e-5)"
       inkscape:connector-curvature="0"
       id="path168"
       style="fill:none;stroke:#00ff00;stroke-width:1.41732283;stroke-linecap:butt;stroke-linejoin:miter;stroke-miterlimit:4;stroke-dasharray:none;stroke-opacity:1"
       d="m 707.895,669.031 0,-60.519 -14.168,0 0,5.246 -8.504,0 0,-5.246 -7.09,0 0,-7.938 7.09,0 0,-5.242 8.504,0 0,5.242 14.168,0 0,-27.918 c 0,-1.566 -1.266,-2.836 -2.833,-2.836 l -145.984,0 0,-8.504 -34.016,0 0,8.504 -145.984,0 c -1.566,0 -2.836,1.27 -2.836,2.836 l 0,27.918 14.172,0 0,-5.242 8.504,0 0,5.242 7.09,0 0,7.938 -7.09,0 0,5.246 -8.504,0 0,-5.246 -14.172,0 0,60.519 -8.504,0 0,34.016 8.504,0 0,60.519 14.172,0 0,-5.242 8.504,0 0,5.242 7.09,0 0,7.938 -7.09,0 0,5.246 -8.504,0 0,-5.246 -14.172,0 0,53.434 c 0,1.566 1.27,2.835 2.836,2.835 l 325.984,0 c 1.567,0 2.833,-1.269 2.833,-2.835 l 0,-53.434 -14.168,0 0,5.246 -8.504,0 0,-5.246 -7.09,0 0,-7.938 7.09,0 0,-5.242 8.504,0 0,5.242 14.168,0 0,-60.519 8.507,0 0,-34.016 -8.507,0 z" /><g
       transform="matrix(1.25,0,0,1.25,0,-2.5e-5)"
       id="g174"
       style="stroke:#00ff00;stroke-opacity:1;fill:none;stroke-width:1.41732283;stroke-miterlimit:4;stroke-dasharray:none"><path
         inkscape:connector-curvature="0"
         id="path176"
         style="fill:none;stroke:#00ff00;stroke-width:1.41732283;stroke-linecap:butt;stroke-linejoin:miter;stroke-miterlimit:4;stroke-dasharray:none;stroke-opacity:1"
         d="m 21.488,574.816 c -2.972,0 -5.386,2.411 -5.386,5.383 0,0.473 -0.379,0.852 -0.848,0.852 l -4.82,0 c -1.563,0 -2.832,1.269 -2.832,2.836 l 0,5.668 c 0,1.566 1.269,2.836 2.832,2.836 l 4.82,0 c 0.469,0 0.851,0.379 0.851,0.847 l 0.707,230.883 8.504,8.504 9.211,-9.211 9.211,9.211 9.215,-9.211 9.211,9.211 9.215,-9.211 9.211,9.211 9.211,-9.211 9.211,9.211 9.215,-9.211 9.211,9.211 9.21,-9.211 9.211,9.211 9.215,-9.211 9.211,9.211 9.211,-9.211 9.215,9.211 9.211,-9.211 9.211,9.211 9.211,-9.211 9.215,9.211 9.211,-9.211 9.21,9.211 9.211,-9.211 9.211,9.211 9.215,-9.211 9.215,9.211 9.211,-9.211 9.211,9.211 9.215,-9.211 9.211,9.211 9.211,-9.211 9.214,9.211 9.211,-9.211 9.211,9.211 8.508,-8.504 0.707,-230.883 c 0,-0.468 0.383,-0.847 0.852,-0.847 l 4.816,0 c 1.567,0 2.836,-1.27 2.836,-2.836 l 0,-5.668 c 0,-1.567 -1.269,-2.836 -2.836,-2.836 l -4.816,0 c -0.469,0 -0.852,-0.379 -0.852,-0.852 0,-2.972 -2.41,-5.383 -5.387,-5.383 l -112.253,0 c -8.504,0 -30.727,7.086 -48.188,7.086 -17.461,0 -39.684,-7.086 -48.187,-7.086 l -112.254,0 0.015,0 z" /></g></g><g
     inkscape:groupmode="layer"
     id="layer2"
     inkscape:label="Engrave"
     style="display:inline"><path
       transform="matrix(1.25,0,0,-1.25,0,1389.4406)"
       d="m 151.91948,452.96731 9.97557,0 c 0,-9.97557 0,-9.97557 -9.97557,-9.97557 l 0,9.97557 z m 0,-19.95234 9.97557,0 c 0,-9.93726 0,-9.97557 -9.85945,-9.97557 l -0.11612,0 0,9.97557 z m 59.85582,0 9.97557,0 c 0,-9.93726 0,-9.97557 -9.85945,-9.97557 l -0.11612,0 0,9.97557 z m -69.83139,-19.95116 89.78373,0 0,-49.88025 -89.78373,0 0,49.88025 z m -19.95234,-14.96395 0,-19.95234 c 0,-4.98839 0,-4.98839 4.98838,-4.98839 l 4.98838,0 0,-14.96395 c 0,-4.98839 0,-4.98839 4.98839,-4.98839 l 99.7593,0 c 4.98839,0 4.98839,0 4.98839,4.98839 l 0,59.85583 c 0,4.98839 0,4.98839 -4.98839,4.98839 l -4.98838,0 0,14.96395 c 0,4.98839 0,4.98839 -4.98838,4.98839 l -24.93953,0 0,14.96395 c 0,4.98839 0,4.98839 -4.98839,4.98839 l -49.88025,0 c -4.98838,0 -4.98838,0 -4.98838,-4.98839 l 0,-34.91629 -4.98719,0 c -4.98838,0 -4.98838,0 -4.98838,-4.98839 l 0,-14.96397 -4.98719,0 c -4.98838,0 -4.98838,0 -4.98838,-4.98718 z"
       id="path4"
       inkscape:connector-curvature="0"
       style="fill:#000000;fill-opacity:1;stroke:#000000;stroke-width:1.19622052;stroke-miterlimit:4;stroke-dasharray:none;stroke-opacity:1" /><g
       transform="matrix(1.3495228,0,0,1.3495228,-53.868793,1417.1452)"
       style="font-style:normal;font-weight:normal;font-size:24.12029648px;line-height:125%;font-family:sans-serif;letter-spacing:0px;word-spacing:0px;fill:#000000;fill-opacity:1;stroke:#000000;stroke-width:0;stroke-linecap:butt;stroke-linejoin:miter;stroke-miterlimit:4;stroke-dasharray:none;stroke-opacity:1"
       id="text5291"><path
         d="m 519.28248,-296.50156 q 0,0.86123 -0.19874,1.56347 -0.19433,0.70223 -0.59182,1.19688 -0.40191,0.50349 -1.00698,0.77732 -0.60507,0.27382 -1.42213,0.27382 -0.22966,0 -0.43282,-0.0265 -0.20316,-0.0221 -0.36216,-0.0751 l 0,-0.84356 0.0442,0 q 0.12808,0.0662 0.36216,0.12808 0.23408,0.0574 0.52116,0.0574 0.97606,0 1.52813,-0.58299 0.55648,-0.5874 0.64481,-1.61646 -0.41074,0.24733 -0.77289,0.35332 -0.36216,0.106 -0.79057,0.106 -0.40632,0 -0.73756,-0.0795 -0.32683,-0.0795 -0.65807,-0.30915 -0.38866,-0.26941 -0.5874,-0.68457 -0.19433,-0.41516 -0.19433,-0.99373 0,-1.00697 0.66248,-1.63854 0.66249,-0.63157 1.61646,-0.63157 0.47699,0 0.88331,0.15016 0.40633,0.14575 0.71107,0.44166 0.37541,0.36658 0.57857,0.94514 0.20316,0.57416 0.20316,1.48838 z m -0.89214,-0.18991 q 0,-0.68456 -0.14133,-1.09972 -0.14133,-0.41516 -0.38866,-0.64482 -0.20758,-0.19874 -0.44607,-0.28266 -0.2385,-0.0883 -0.51674,-0.0883 -0.63599,0 -1.00698,0.39749 -0.36657,0.39749 -0.36657,1.11739 0,0.41957 0.11925,0.68457 0.11924,0.26499 0.4019,0.46374 0.19875,0.13691 0.43724,0.18549 0.2385,0.0442 0.52999,0.0442 0.34449,0 0.69782,-0.0927 0.35332,-0.0928 0.66248,-0.26941 0.004,-0.0927 0.009,-0.18108 0.009,-0.0928 0.009,-0.23408 z"
         style="font-size:9.04511166px;stroke:#000000;stroke-width:0;stroke-miterlimit:4;stroke-dasharray:none;stroke-opacity:1"
         id="path4261"
         inkscape:connector-curvature="0" /><path
         d="m 525.9559,-299.3944 -2.39377,6.57625 -1.16598,0 -2.39377,-6.57625 0.93631,0 2.06253,5.78569 2.06254,-5.78569 0.89214,0 z"
         style="font-size:9.04511166px;stroke:#000000;stroke-width:0;stroke-miterlimit:4;stroke-dasharray:none;stroke-opacity:1"
         id="path4263"
         inkscape:connector-curvature="0" /><path
         d="m 532.51007,-296.09965 q 0,0.89656 -0.39307,1.62529 -0.38866,0.72874 -1.03789,1.13064 -0.45049,0.27825 -1.00698,0.40191 -0.55207,0.12366 -1.45746,0.12366 l -1.66063,0 0,-6.57625 1.64296,0 q 0.96281,0 1.52813,0.14133 0.56974,0.13691 0.96281,0.37982 0.67132,0.41958 1.04672,1.11739 0.37541,0.69782 0.37541,1.65621 z m -0.91423,-0.0133 q 0,-0.7729 -0.26941,-1.30288 -0.26941,-0.52999 -0.80381,-0.83473 -0.38866,-0.22083 -0.8259,-0.30475 -0.43723,-0.0883 -1.04672,-0.0883 l -0.82148,0 0,5.07463 0.82148,0 q 0.63157,0 1.09972,-0.0928 0.47258,-0.0927 0.86565,-0.34449 0.49024,-0.31358 0.73315,-0.8259 0.24732,-0.51232 0.24732,-1.2808 z"
         style="font-size:9.04511166px;stroke:#000000;stroke-width:0;stroke-miterlimit:4;stroke-dasharray:none;stroke-opacity:1"
         id="path4265"
         inkscape:connector-curvature="0" /><path
         d="m 539.01125,-293.29513 q -0.24291,0.10599 -0.44166,0.19874 -0.19433,0.0927 -0.51232,0.19433 -0.26941,0.0839 -0.5874,0.14133 -0.31358,0.0618 -0.6934,0.0618 -0.71548,0 -1.30289,-0.19874 -0.58298,-0.20317 -1.0158,-0.63157 -0.42399,-0.41957 -0.66249,-1.06439 -0.23849,-0.64924 -0.23849,-1.50605 0,-0.81265 0.22966,-1.45305 0.22966,-0.6404 0.66248,-1.08205 0.41958,-0.42841 1.01139,-0.65365 0.59624,-0.22525 1.32055,-0.22525 0.52999,0 1.05556,0.12808 0.52999,0.12808 1.17481,0.45049 l 0,1.03789 -0.0662,0 q -0.54324,-0.4549 -1.07764,-0.66248 -0.53441,-0.20758 -1.14389,-0.20758 -0.49907,0 -0.90098,0.16341 -0.39749,0.159 -0.71106,0.49907 -0.30475,0.33125 -0.47699,0.83915 -0.16783,0.50349 -0.16783,1.16597 0,0.6934 0.18549,1.19247 0.18992,0.49907 0.48583,0.81265 0.30915,0.32682 0.71989,0.48582 0.41516,0.15458 0.87448,0.15458 0.63157,0 1.18364,-0.21641 0.55207,-0.21641 1.03348,-0.64924 l 0.0618,0 0,1.02465 z"
         style="font-size:9.04511166px;stroke:#000000;stroke-width:0;stroke-miterlimit:4;stroke-dasharray:none;stroke-opacity:1"
         id="path4267"
         inkscape:connector-curvature="0" /><path
         d="m 541.81135,-291.08685 -0.76849,0 0,-8.60346 0.76849,0 0,8.60346 z"
         style="font-size:9.04511166px;stroke:#000000;stroke-width:0;stroke-miterlimit:4;stroke-dasharray:none;stroke-opacity:1"
         id="path4269"
         inkscape:connector-curvature="0" /><path
         d="m 548.27719,-292.81815 -3.55975,0 0,-0.67131 1.36913,0 0,-4.40773 -1.36913,0 0,-0.60065 q 0.27824,0 0.59624,-0.0442 0.31799,-0.0486 0.4814,-0.13691 0.20316,-0.11041 0.31799,-0.27824 0.11925,-0.17225 0.13692,-0.45932 l 0.68456,0 0,5.92702 1.34264,0 0,0.67131 z"
         style="font-size:9.04511166px;stroke:#000000;stroke-width:0;stroke-miterlimit:4;stroke-dasharray:none;stroke-opacity:1"
         id="path4271"
         inkscape:connector-curvature="0" /><path
         d="m 551.42178,-292.81815 -1.05556,0 0,-1.25871 1.05556,0 0,1.25871 z"
         style="font-size:9.04511166px;stroke:#000000;stroke-width:0;stroke-miterlimit:4;stroke-dasharray:none;stroke-opacity:1"
         id="path4273"
         inkscape:connector-curvature="0" /><path
         d="m 557.64471,-294.90718 q 0,0.45932 -0.16783,0.8789 -0.16783,0.41957 -0.45933,0.70665 -0.31799,0.30916 -0.75964,0.47698 -0.43724,0.16342 -1.01581,0.16342 -0.53882,0 -1.03789,-0.11483 -0.49907,-0.11042 -0.84357,-0.26941 l 0,-0.9319 0.0618,0 q 0.36215,0.22966 0.84798,0.39308 0.48582,0.15899 0.95397,0.15899 0.31358,0 0.60507,-0.0883 0.29591,-0.0883 0.52557,-0.30916 0.19433,-0.18991 0.29149,-0.4549 0.10158,-0.265 0.10158,-0.6139 0,-0.34008 -0.11924,-0.57416 -0.11483,-0.23407 -0.32241,-0.3754 -0.22966,-0.16783 -0.5609,-0.23408 -0.32683,-0.0707 -0.73315,-0.0707 -0.38866,0 -0.75082,0.053 -0.35774,0.053 -0.61832,0.106 l 0,-3.3875 3.95724,0 0,0.7729 -3.10484,0 0,1.74895 q 0.18991,-0.0177 0.38866,-0.0265 0.19874,-0.009 0.34449,-0.009 0.5344,0 0.93631,0.0927 0.40191,0.0883 0.73756,0.31799 0.35333,0.24291 0.54766,0.62715 0.19433,0.38424 0.19433,0.96281 z"
         style="font-size:9.04511166px;stroke:#000000;stroke-width:0;stroke-miterlimit:4;stroke-dasharray:none;stroke-opacity:1"
         id="path4275"
         inkscape:connector-curvature="0" /><path
         d="m 564.36229,-292.81815 -0.93189,0 -0.64482,-1.83287 -2.84426,0 -0.64482,1.83287 -0.88773,0 2.39378,-6.57625 1.16597,0 2.39377,6.57625 z m -1.84612,-2.58368 -1.15272,-3.22851 -1.15714,3.22851 2.30986,0 z"
         style="font-size:9.04511166px;stroke:#000000;stroke-width:0;stroke-miterlimit:4;stroke-dasharray:none;stroke-opacity:1"
         id="path4277"
         inkscape:connector-curvature="0" /></g></g></svg>