<svg xmlns="http://www.w3.org/2000/svg" xmlns:xlink="http://www.w3.org/1999/xlink" version="1.1" x="0px" y="0px" viewBox="-255 347 100 125" style="enable-background:new -255 347 100 100;" xml:space="preserve"><style type="text/css">
	.st0{enable-background:new    ;}
	.st1{fill:#FFFFFF;}
	.st2{fill:none;stroke:#FFFFFF;stroke-miterlimit:10;}
	.st3{fill:none;}
	.st4{fill:none;stroke:#000000;stroke-width:4.5;stroke-linecap:round;stroke-linejoin:round;stroke-miterlimit:10;}
</style><g><rect x="-447" y="347" width="185" height="99"/><rect x="-255" y="311" width="100" height="30"/><text transform="matrix(1 0 0 1 -189 327.5)" class="st1" style="" font-family="'Helvetica'" font-size="2.4px">http://thenounproject.com</text><text transform="matrix(1 0 0 1 -247.834 322.5)" class="st1" style="" font-family="'Helvetica-Bold'" font-size="6.1578px">The Noun Project</text><text transform="matrix(1 0 0 1 -246.7139 327.2998)" class="st1" style="" font-family="'Helvetica-Bold'" font-size="4px">Icon Template</text><text transform="matrix(1 0 0 1 -433.5 357.5)" class="st1" style="" font-family="'Helvetica-Bold'" font-size="6.1578px">Reminders</text><line class="st2" x1="-247" y1="332.5" x2="-237" y2="332.5"/><line class="st2" x1="-434" y1="363.5" x2="-417" y2="363.5"/><g><g><g><rect x="-425.8" y="378.3" class="st1" width="8.7" height="8.6"/><path class="st1" d="M-419.5,389.3h4.7v-4.7h-4.7V389.3z M-414.3,389.7h-5.6v-5.6h5.6V389.7L-414.3,389.7z M-421.2,391.1h8.3      v-8.2h-8.3V391.1L-421.2,391.1z M-412.5,391.5h-9.2v-9.1h9.2V391.5L-412.5,391.5z"/><polygon class="st1" points="-421.1,391.1 -421.3,391 -413,382.8 -412.9,382.9     "/></g></g></g><rect x="-434" y="405" class="st3" width="35" height="32.5"/><text transform="matrix(1 0 0 1 -434 407.1572)" class="st1" style="" font-family="'Helvetica-Bold'" font-size="3px">Strokes</text><text transform="matrix(1 0 0 1 -434 412.1572)" class="st1" style="" font-family="'Helvetica'" font-size="2.4px">Try to keep strokes at 4px</text><text transform="matrix(1 0 0 1 -434 417.1572)" class="st1" style="" font-family="'Helvetica'" font-size="2.4px">Minimum stroke weight is 2px</text><text transform="matrix(1 0 0 1 -434 421.6572)" class="st1" style="" font-family="'Helvetica'" font-size="2.4px">For thicker strokes use even </text><text transform="matrix(1 0 0 1 -434 424.6572)" class="st1" style="" font-family="'Helvetica'" font-size="2.4px">numbers: 6px, 8px etc.</text><text transform="matrix(1 0 0 1 -434 429.1572)" class="st1" style="" font-family="'Helvetica-Bold'" font-size="2.4px">Remember to expand strokes </text><text transform="matrix(1 0 0 1 -434 432.1572)" class="st1" style="" font-family="'Helvetica-Bold'" font-size="2.4px">before saving as an SVG </text><rect x="-391.5" y="405" class="st3" width="35" height="32.5"/><text transform="matrix(1 0 0 1 -391.5 407.1572)" class="st1" style="" font-family="'Helvetica-Bold'" font-size="3px">Size</text><text transform="matrix(1 0 0 1 -391.5 412.1572)" class="st1" style="" font-family="'Helvetica'" font-size="2.4px">Cannot be wider or taller than </text><text transform="matrix(1 0 0 1 -391.5 415.6572)" class="st1" style="" font-family="'Helvetica'" font-size="2.4px">100px (artboard size)</text><text transform="matrix(1 0 0 1 -391.5 420.6572)" class="st1" style="" font-family="'Helvetica'" font-size="2.4px">Scale your icon to fill as much of </text><text transform="matrix(1 0 0 1 -391.5 423.6572)" class="st1" style="" font-family="'Helvetica'" font-size="2.4px">the artboard as possible</text><rect x="-349" y="405" class="st3" width="35" height="32.5"/><text transform="matrix(1 0 0 1 -349 407.1572)" class="st1" style="" font-family="'Helvetica-Bold'" font-size="3px">Ungroup</text><text transform="matrix(1 0 0 1 -349 412.1572)" class="st1" style="" font-family="'Helvetica'" font-size="2.4px">If your design has more than one </text><text transform="matrix(1 0 0 1 -349 415.1572)" class="st1" style="" font-family="'Helvetica'" font-size="2.4px">shape, make sure to ungroup</text><rect x="-305" y="405" class="st3" width="35" height="32.5"/><text transform="matrix(1 0 0 1 -305 407.1572)" class="st1" style="" font-family="'Helvetica-Bold'" font-size="3px">Save as</text><text transform="matrix(1 0 0 1 -305 412.1572)" class="st1" style="" font-family="'Helvetica'" font-size="2.4px">Save as .SVG and make sure </text><text transform="matrix(1 0 0 1 -305 415.1572)" class="st1" style="" font-family="'Helvetica'" font-size="2.4px">“Use Artboards” is checked</text><text transform="matrix(1.0074 0 0 1 -380.542 377.5938)" class="st1" style="" font-family="'Helvetica'" font-size="2.5731px">100px</text><text transform="matrix(1.0074 0 0 1 -296 386)" class="st1" style="" font-family="'Helvetica-Bold'" font-size="5.1462px">.SVG</text><rect x="-381.5" y="381.8" class="st1" width="10.3" height="10.2"/><rect x="-381.5" y="378.8" class="st1" width="0.5" height="2.3"/><rect x="-371.8" y="378.8" class="st1" width="0.5" height="2.3"/><rect x="-382" y="379.3" class="st1" width="11.2" height="0.6"/><g><rect x="-338.8" y="380.8" class="st1" width="10.3" height="10.2"/><rect x="-331.8" y="375.7" class="st1" width="3.3" height="3.3"/></g><rect x="-433.5" y="369.5" class="st2" width="30" height="30"/><rect x="-391.5" y="369.5" class="st2" width="30" height="30"/><rect x="-348.5" y="369.5" class="st2" width="30" height="30"/><rect x="-304.5" y="369.5" class="st2" width="30" height="30"/></g><path d="M-205.1,422.2"/><g><g><g><path d="M-204.3,422.7h-33.5c-1.2,0-2.2-1-2.2-2.2V380c0-1.2,1-2.2,2.2-2.2h33.5c1.2,0,2.2,1,2.2,2.2v40.4     C-202.1,421.7-203.1,422.7-204.3,422.7z M-235.6,418.2h29v-35.9h-29V418.2z"/></g></g><g><g><path d="M-203.7,382.1h-35c-1.7,0-3.1-1.4-3.1-3.1v-6.3c0-1.7,1.4-3.1,3.1-3.1h35c1.7,0,3.1,1.4,3.1,3.1v6.3     C-200.5,380.7-201.9,382.1-203.7,382.1z M-237.3,377.6h32.3v-3.5h-32.3V377.6z"/></g></g><g><g><path d="M-203.7,430.7h-35c-1.7,0-3.1-1.4-3.1-3.1v-6.3c0-1.7,1.4-3.1,3.1-3.1h35c1.7,0,3.1,1.4,3.1,3.1v6.3     C-200.5,429.3-201.9,430.7-203.7,430.7z M-237.3,426.2h32.3v-3.5h-32.3V426.2z"/></g></g><g><g><path d="M-213.6,374.1c-1.2,0-2.2-1-2.2-2.2v-4h-10.6v4c0,1.2-1,2.2-2.2,2.2s-2.2-1-2.2-2.2v-5.4c0-1.7,1.4-3.1,3.1-3.1h13.4     c1.7,0,3.1,1.4,3.1,3.1v5.4C-211.3,373.1-212.3,374.1-213.6,374.1z"/></g></g><g><g><path d="M-196,414.5c-1.2,0-2.2-1-2.2-2.2v-2.2c0-1.2,1-2.2,2.2-2.2s2.2,1,2.2,2.2v2.2C-193.7,413.5-194.8,414.5-196,414.5z"/></g></g><g><g><path d="M-191.9,422.7h-10.8c-1.2,0-2.2-1-2.2-2.2s1-2.2,2.2-2.2h10.8c0.3,0,0.5-0.5,0.6-0.7c0-4.7,1.5-8.4,4.2-10.9     c3.9-3.6,9.1-3.4,10-3.3h3.1c1.3,0,1.4-0.5,1.4-0.6V383c-0.2-0.4-0.6-0.9-1.4-0.9h-28.6c-1.2,0-2.2-1-2.2-2.2s1-2.2,2.2-2.2h28.6     c3.6,0,5.3,2.9,5.8,4.4c0.1,0.2,0.1,0.4,0.1,0.6v20c0,2.1-1.6,5.1-5.9,5.1h-3.2c-0.1,0-0.1,0-0.2,0c0,0-4-0.3-6.7,2.2     c-1.8,1.7-2.7,4.3-2.7,7.8c0,0.1,0,0.2,0,0.3C-187.2,420.3-188.9,422.7-191.9,422.7z"/></g></g><g><g><path class="st4" d="M-202.7,379.8"/></g></g><g><g><path d="M-229.9,415.7c-1.2,0-2.2-1-2.2-2.2v-25.9c0-1.2,1-2.2,2.2-2.2s2.2,1,2.2,2.2v25.9C-227.6,414.6-228.6,415.7-229.9,415.7     z"/></g></g><g><g><path d="M-196,391.7c-1.2,0-2.2-1-2.2-2.2v-2.2c0-1.2,1-2.2,2.2-2.2s2.2,1,2.2,2.2v2.2C-193.7,390.7-194.8,391.7-196,391.7z"/></g></g><g><g><path d="M-187.6,391.7c-1.2,0-2.2-1-2.2-2.2v-2.2c0-1.2,1-2.2,2.2-2.2s2.2,1,2.2,2.2v2.2C-185.3,390.7-186.3,391.7-187.6,391.7z"/></g></g><g><g><path d="M-179.1,391.7c-1.2,0-2.2-1-2.2-2.2v-2.2c0-1.2,1-2.2,2.2-2.2s2.2,1,2.2,2.2v2.2C-176.9,390.7-177.9,391.7-179.1,391.7z"/></g></g></g><text x="-255" y="462" fill="#000000" font-size="5px" font-weight="bold" font-family="'Helvetica Neue', Helvetica, Arial-Unicode, Arial, Sans-serif">Created by Joe Harrison</text><text x="-255" y="467" fill="#000000" font-size="5px" font-weight="bold" font-family="'Helvetica Neue', Helvetica, Arial-Unicode, Arial, Sans-serif">from the Noun Project</text></svg>