<svg xmlns="http://www.w3.org/2000/svg" xmlns:xlink="http://www.w3.org/1999/xlink" version="1.1" x="0px" y="0px" viewBox="0 0 100 125" enable-background="new 0 0 100 100" xml:space="preserve"><path d="M84,15H64v-5c0-1.1,0.9-2,2-2h16c1.1,0,2,0.9,2,2V15z M80,11c0-0.6-0.4-1-1-1h-4c-0.6,0-1,0.4-1,1v1c0,0.6,0.4,1,1,1h4  c0.6,0,1-0.4,1-1V11z M91,16H56c-1.7,0-3,1.3-3,3v3v4H7.6C6.2,26,5,27.2,5,28.6v20.2c0,1.3,1.1,2.4,2.4,2.4l5.9,0  c2.7,0,5.4,0.2,7.8,0.9c4,1.2,6.8,2.8,7.9,9c0.1,0.3,0,0.6,0.1,0.9l0.5,7.7c0.5,2,2.4,2.3,3.8,2.3h2.2H53v4v2c0,1.7,1.3,3,3,3h35  c1.7,0,3-1.3,3-3v-2V22v-3C94,17.3,92.7,16,91,16z M90,72H69V26h21V72z M11,32c0,0.6-0.4,1-1,1H9c-0.6,0-1-0.4-1-1v-2  c0-0.6,0.4-1,1-1h1c0.6,0,1,0.4,1,1V32z M17,32c0,0.6-0.4,1-1,1h-1c-0.6,0-1-0.4-1-1v-2c0-0.6,0.4-1,1-1h1c0.6,0,1,0.4,1,1V32z   M23,32c0,0.6-0.4,1-1,1h-1c-0.6,0-1-0.4-1-1v-2c0-0.6,0.4-1,1-1h1c0.6,0,1,0.4,1,1V32z M29,32c0,0.6-0.4,1-1,1h-1c-0.6,0-1-0.4-1-1  v-2c0-0.6,0.4-1,1-1h1c0.6,0,1,0.4,1,1V32z M35,32c0,0.6-0.4,1-1,1h-1c-0.6,0-1-0.4-1-1v-2c0-0.6,0.4-1,1-1h1c0.6,0,1,0.4,1,1V32z   M41,32c0,0.6-0.4,1-1,1h-1c-0.6,0-1-0.4-1-1v-2c0-0.6,0.4-1,1-1h1c0.6,0,1,0.4,1,1V32z M47,32c0,0.6-0.4,1-1,1h-1c-0.6,0-1-0.4-1-1  v-2c0-0.6,0.4-1,1-1h1c0.6,0,1,0.4,1,1V32z M35,68c0,0.6-0.4,1-1,1h-1c-0.6,0-1-0.4-1-1v-2c0-0.6,0.4-1,1-1h1c0.6,0,1,0.4,1,1V68z   M41,68c0,0.6-0.4,1-1,1h-1c-0.6,0-1-0.4-1-1v-2c0-0.6,0.4-1,1-1h1c0.6,0,1,0.4,1,1V68z M47,68c0,0.6-0.4,1-1,1h-1c-0.6,0-1-0.4-1-1  v-2c0-0.6,0.4-1,1-1h1c0.6,0,1,0.4,1,1V68z M53,32c0,0.6-0.4,1-1,1h-1c-0.6,0-1-0.4-1-1v-2c0-0.6,0.4-1,1-1h1c0.6,0,1,0.4,1,1V32z   M53,68c0,0.6-0.4,1-1,1h-1c-0.6,0-1-0.4-1-1v-2c0-0.6,0.4-1,1-1h1c0.6,0,1,0.4,1,1V68z M59,32c0,0.6-0.4,1-1,1h-1c-0.6,0-1-0.4-1-1  v-2c0-0.6,0.4-1,1-1h1c0.6,0,1,0.4,1,1V32z M59,68c0,0.6-0.4,1-1,1h-1c-0.6,0-1-0.4-1-1v-2c0-0.6,0.4-1,1-1h1c0.6,0,1,0.4,1,1V68z   M65,32c0,0.6-0.4,1-1,1h-1c-0.6,0-1-0.4-1-1v-2c0-0.6,0.4-1,1-1h1c0.6,0,1,0.4,1,1V32z M65,68c0,0.6-0.4,1-1,1h-1c-0.6,0-1-0.4-1-1  v-2c0-0.6,0.4-1,1-1h1c0.6,0,1,0.4,1,1V68z"/><text x="0" y="115" fill="#000000" font-size="5px" font-weight="bold" font-family="'Helvetica Neue', Helvetica, Arial-Unicode, Arial, Sans-serif">Created by Martin Chapman Fromm</text><text x="0" y="120" fill="#000000" font-size="5px" font-weight="bold" font-family="'Helvetica Neue', Helvetica, Arial-Unicode, Arial, Sans-serif">from the Noun Project</text></svg>