<svg xmlns="http://www.w3.org/2000/svg" xmlns:xlink="http://www.w3.org/1999/xlink" version="1.1" x="0px" y="0px" viewBox="0 0 100 125" enable-background="new 0 0 100 100" xml:space="preserve"><path d="M87.5,25v8.333c-8.333,0-8.333,0-8.333-8.333H87.5z M70.833,25v8.333c-8.301,0-8.333,0-8.333-8.236V25H70.833z M70.833,75  v8.333c-8.301,0-8.333,0-8.333-8.236V75H70.833z M54.167,16.667v75H12.5v-75H54.167z M41.667,0H25c-4.167,0-4.167,0-4.167,4.167  v4.167h-12.5c-4.167,0-4.167,0-4.167,4.167v83.333c0,4.167,0,4.167,4.167,4.167h50c4.167,0,4.167,0,4.167-4.167v-4.167H75  c4.167,0,4.167,0,4.167-4.167V66.667h12.5c4.167,0,4.167,0,4.167-4.167V20.833c0-4.167,0-4.167-4.167-4.167H62.5V12.5  c0-4.167,0-4.167-4.167-4.167h-12.5V4.167C45.833,0,45.833,0,41.667,0z"/><text x="0" y="115" fill="#000000" font-size="5px" font-weight="bold" font-family="'Helvetica Neue', Helvetica, Arial-Unicode, Arial, Sans-serif">Created by Thomas Helbig</text><text x="0" y="120" fill="#000000" font-size="5px" font-weight="bold" font-family="'Helvetica Neue', Helvetica, Arial-Unicode, Arial, Sans-serif">from the Noun Project</text></svg>