<svg xmlns="http://www.w3.org/2000/svg" xmlns:xlink="http://www.w3.org/1999/xlink" version="1.1" x="0px" y="0px" viewBox="0 0 100 125" enable-background="new 0 0 100 100" xml:space="preserve"><path d="M63.027,35.521H28.599c-10.371,0-18.808,8.437-18.808,18.807c0,10.371,8.438,18.807,18.808,18.807h15  c3.34,0,6.058-2.717,6.058-6.057c0-1.215-0.362-2.344-0.979-3.293c1.78-1.055,2.979-2.992,2.979-5.207  c0-1.215-0.362-2.344-0.979-3.291c1.779-1.057,2.979-2.992,2.979-5.208c0-0.869-0.188-1.694-0.519-2.442h9.889  c3.34,0,6.058-2.717,6.058-6.058S66.367,35.521,63.027,35.521z M63.027,44.021H36.849c-0.999,0-1.808,0.81-1.808,1.808  s0.81,1.808,1.808,1.808h10.75c1.347,0,2.442,1.096,2.442,2.442c0,1.347-1.095,2.443-2.442,2.443h-10.75  c-0.999,0-1.808,0.809-1.808,1.807s0.81,1.809,1.808,1.809h8.75c1.347,0,2.442,1.096,2.442,2.441s-1.095,2.441-2.442,2.441h-8.75  c-0.999,0-1.808,0.811-1.808,1.809s0.81,1.807,1.808,1.807h6.75c1.347,0,2.442,1.096,2.442,2.443c0,1.346-1.095,2.441-2.442,2.441  h-15c-8.377,0-15.192-6.814-15.192-15.191c0-8.376,6.815-15.192,15.192-15.192h34.428c1.346,0,2.441,1.096,2.441,2.442  S64.373,44.021,63.027,44.021z M88.402,26.865c-3.496,0-6.781,1.545-9.018,4.239c-0.269,0.324-0.416,0.732-0.416,1.154v1.885h-4.316  c-0.999,0-1.809,0.81-1.809,1.808v11.25c0,0.998,0.81,1.808,1.809,1.808h4.316v1.884c0,0.422,0.147,0.83,0.416,1.154  c2.236,2.695,5.521,4.24,9.018,4.24c0.998,0,1.808-0.811,1.808-1.809V28.672C90.21,27.674,89.4,26.865,88.402,26.865z   M78.969,45.393H76.46v-7.635h2.509V45.393z M86.594,52.467c-1.519-0.346-2.91-1.127-4.009-2.263V32.948  c1.099-1.136,2.49-1.917,4.009-2.264V52.467z"/><text x="0" y="115" fill="#000000" font-size="5px" font-weight="bold" font-family="'Helvetica Neue', Helvetica, Arial-Unicode, Arial, Sans-serif">Created by Sergey Demushkin</text><text x="0" y="120" fill="#000000" font-size="5px" font-weight="bold" font-family="'Helvetica Neue', Helvetica, Arial-Unicode, Arial, Sans-serif">from the Noun Project</text></svg>