<svg xmlns="http://www.w3.org/2000/svg" xmlns:xlink="http://www.w3.org/1999/xlink" version="1.1" x="0px" y="0px" viewBox="0 0 100 125" enable-background="new 0 0 100 100" xml:space="preserve"><path fill="#000000" d="M69.002,21.345v7.924L57.139,43.942c-0.524,0.648-1.303,1.021-2.137,1.021  s-1.613-0.372-2.138-1.021L41.002,29.269v-7.924H69.002z"/><path d="M78.502,31.731V13.845c0-1.105-0.895-2-2-2h-43c-1.105,0-2,0.895-2,2v17.886c0,0.46,0.158,0.906,0.449,1.262l12.234,15.038  l-3.576,4.345c-2.169-0.89-4.539-1.389-7.025-1.389C23.336,50.987,15,59.324,15,69.571s8.336,18.584,18.583,18.584  c4.515,0,8.657-1.622,11.881-4.31h31.038c1.105,0,2-0.895,2-2V64.157c0-0.464-0.161-0.913-0.456-1.271L65.82,48.031l12.234-15.038  C78.343,32.637,78.502,32.191,78.502,31.731z M20,69.571c0-7.49,6.094-13.584,13.583-13.584s13.583,6.094,13.583,13.584  s-6.094,13.584-13.583,13.584S20,77.061,20,69.571z M73.502,30.665L59.875,47.414c-0.3,0.369-0.299,0.899,0.004,1.267l13.623,16.553  v13.612H49.663c1.583-2.733,2.504-5.895,2.504-9.274c0-5.949-2.821-11.24-7.183-14.644l5.141-6.246  c0.302-0.367,0.304-0.897,0.004-1.267L36.502,30.665V16.845h37V30.665z"/><path d="M38.833,74.37h-7.331c-1.381,0-2.5-1.119-2.5-2.5v-8.332c0-1.381,1.119-2.5,2.5-2.5s2.5,1.119,2.5,2.5v5.832h4.831  c1.381,0,2.5,1.119,2.5,2.5S40.214,74.37,38.833,74.37z"/><text x="0" y="115" fill="#000000" font-size="5px" font-weight="bold" font-family="'Helvetica Neue', Helvetica, Arial-Unicode, Arial, Sans-serif">Created by Daouna Jeong</text><text x="0" y="120" fill="#000000" font-size="5px" font-weight="bold" font-family="'Helvetica Neue', Helvetica, Arial-Unicode, Arial, Sans-serif">from the Noun Project</text></svg>