<svg xmlns="http://www.w3.org/2000/svg" xmlns:xlink="http://www.w3.org/1999/xlink" version="1.1" x="0px" y="0px" viewBox="0 0 100 125" enable-background="new 0 0 100 100" xml:space="preserve"><g><g><path d="M31.637,33.881c-0.48,0-0.964-0.146-1.382-0.45l-13.722-9.975c-1.052-0.764-1.285-2.236-0.52-3.287    c0.764-1.051,2.237-1.284,3.287-0.52l13.722,9.975c1.052,0.764,1.285,2.236,0.52,3.287C33.082,33.545,32.364,33.881,31.637,33.881    z"/></g><g><path d="M66.871,33.881c-0.728,0-1.445-0.336-1.905-0.97c-0.765-1.051-0.532-2.523,0.52-3.287l13.723-9.975    c1.049-0.765,2.522-0.532,3.287,0.52c0.764,1.051,0.531,2.523-0.521,3.287l-13.722,9.975    C67.836,33.735,67.351,33.881,66.871,33.881z"/></g></g><path d="M65.259,66H33.251C30.651,66,29,67.782,29,70.382v1.569C29,74.552,30.651,77,33.251,77H35v18.646c0,1.3,0.7,2.354,2,2.354  s2-1.054,2-2.354V77h20v18.646c0,1.3,1.2,2.354,2.5,2.354s2.5-1.054,2.5-2.354V77h1.259c2.6,0,4.741-2.448,4.741-5.049v-1.569  C70,67.782,67.858,66,65.259,66z"/><g><path d="M49.255,23.906c-1.3,0-2.354-1.054-2.354-2.354V3.968c0-1.3,1.054-2.354,2.354-2.354s2.354,1.054,2.354,2.354v17.585   C51.608,22.853,50.555,23.906,49.255,23.906z"/></g><g><g><path d="M28.377,52.146H8.778c-1.3,0-2.354-1.054-2.354-2.354s1.054-2.354,2.354-2.354h19.599c1.3,0,2.354,1.054,2.354,2.354    S29.677,52.146,28.377,52.146z"/></g><g><path d="M89.73,52.146h-19.6c-1.3,0-2.354-1.054-2.354-2.354s1.054-2.354,2.354-2.354h19.6c1.3,0,2.354,1.054,2.354,2.354    S91.03,52.146,89.73,52.146z"/></g></g><g><path d="M49.5,28.324c-8.046,0-14.5,6.545-14.5,14.592V61h2.017h2.354h19.77h2.354H64V42.916C64,34.869,57.546,28.324,49.5,28.324z    M59,56.539c0,1.258-0.742,2.277-2,2.277s-2-1.02-2-2.277V38.5c0-1.258,0.742-2.277,2-2.277s2,1.02,2,2.277V56.539z"/></g><text x="0" y="115" fill="#000000" font-size="5px" font-weight="bold" font-family="'Helvetica Neue', Helvetica, Arial-Unicode, Arial, Sans-serif">Created by Megan Mitchell</text><text x="0" y="120" fill="#000000" font-size="5px" font-weight="bold" font-family="'Helvetica Neue', Helvetica, Arial-Unicode, Arial, Sans-serif">from the Noun Project</text></svg>