<svg xmlns="http://www.w3.org/2000/svg" viewBox="0 0 100 125" x="0px" y="0px"><path d="M84.7 5H15.3C12.4 5 10 7.4 10 10.3v79c0 2.9 2.4 5.3 5.3 5.3h69.3c2.9 0 5.3-2.4 5.3-5.3v-79C90 7.4 87.6 5 84.7 5zM14 68.5l21.5-24.7 14.2 14.6c.4.4 1 .7 1.6.6.6-.1 1.2-.4 1.5-.9l20.6-32L86 38v34.1H14v-3.6zM15.3 9h69.3c.7 0 1.3.6 1.3 1.3v22.1l-11.5-11c-.4-.4-1-.6-1.6-.5-.6.1-1.1.4-1.4.9l-20.6 32-14-14.3c-.4-.4-.9-.6-1.5-.6s-1.1.3-1.5.7L14 62.4V10.3c0-.7.6-1.3 1.3-1.3zm69.4 81.6H15.3c-.7 0-1.3-.6-1.3-1.3V76.1h72v13.2c0 .7-.6 1.3-1.3 1.3z"/><path d="M28.7 33.5c5.3 0 9.6-4.3 9.6-9.6s-4.3-9.6-9.6-9.6-9.6 4.3-9.6 9.6 4.3 9.6 9.6 9.6zm0-15.2c3.1 0 5.6 2.5 5.6 5.6 0 3.1-2.5 5.6-5.6 5.6-3.1 0-5.6-2.5-5.6-5.6 0-3 2.5-5.6 5.6-5.6z"/><text x="0" y="115" fill="#000000" font-size="5px" font-weight="bold" font-family="'Helvetica Neue', Helvetica, Arial-Unicode, Arial, Sans-serif">Created by Calvin Goodman</text><text x="0" y="120" fill="#000000" font-size="5px" font-weight="bold" font-family="'Helvetica Neue', Helvetica, Arial-Unicode, Arial, Sans-serif">from the Noun Project</text></svg>